# xmcd
#
# Track frame offsets: 
#        150
#        17412
#        30227
#        48008
#        63118
#        80023
#        89431
#        105994
#        116481
#        135400
#        149162
#
# Disc length: 2113 seconds
#
# Revision: 0
# Processed by: cddbd v1.5.2PL0 Copyright (c) Steve Scherf et al.
# Submitted via: ExactAudioCopyFreeDBPlugin 1.0
#
DISCID=80083f0b
DTITLE=Terry and Jenny - Songs Of Our Land
DYEAR=2008
DGENRE=Country
TTITLE0=Dear Mum I'm Safe And Well
TTITLE1=Porcelain Draught Horse
TTITLE2=Save Me A Seat In Heaven
TTITLE3=Where Has My Australia Gone
TTITLE4=Weeping Willows
TTITLE5=Freight Train Boogie
TTITLE6=Swagman Lament
TTITLE7=My Dog Loves You Too
TTITLE8=A Million Stars
TTITLE9=We’re Just Passing Through
TTITLE10=Memories Of Home
EXTD=
EXTT0=
EXTT1=
EXTT2=
EXTT3=
EXTT4=
EXTT5=
EXTT6=
EXTT7=
EXTT8=
EXTT9=
EXTT10=
PLAYORDER=
